<svg class="doc-diagram" viewBox="0 0 1280 880" role="img" aria-label="HotSpot JDK 8+ JVM 进程内存" xmlns="http://www.w3.org/2000/svg">
  <style>
    .doc-diagram {
      --dg-surface: #f8fafc;
      --dg-panel: #ffffff;
      --dg-border: #cbd5e1;
      --dg-text: #172033;
      --dg-muted: #334155;
      --dg-green: #ecfdf5;
      --dg-green-border: #86efac;
      --dg-blue: #eff6ff;
      --dg-blue-border: #93c5fd;
      --dg-orange: #fff7ed;
      --dg-orange-border: #fdba74;
      --dg-purple: #f5f3ff;
      --dg-purple-border: #c4b5fd;
      --dg-yellow: #fefce8;
      --dg-yellow-border: #fde047;
      color: var(--dg-muted);
    }
    @media (prefers-color-scheme: dark) {
      .doc-diagram {
        --dg-surface: #0f172a;
        --dg-panel: #111827;
        --dg-border: #475569;
        --dg-text: #e5e7eb;
        --dg-muted: #cbd5e1;
        --dg-green: #052e2b;
        --dg-green-border: #0f766e;
        --dg-blue: #172554;
        --dg-blue-border: #2563eb;
        --dg-orange: #431407;
        --dg-orange-border: #c2410c;
        --dg-purple: #2e1065;
        --dg-purple-border: #7e22ce;
        --dg-yellow: #422006;
        --dg-yellow-border: #ca8a04;
      }
    }
    .dg-title { font: 700 26px sans-serif; fill: var(--dg-text); }
    .dg-group-title { font: 700 17px sans-serif; fill: var(--dg-text); }
    .dg-box-title { font: 700 14px sans-serif; fill: var(--dg-text); }
    .dg-body { font: 13px sans-serif; fill: var(--dg-muted); }
    .dg-surface { fill: var(--dg-surface); stroke: var(--dg-border); stroke-width: 1.4; }
    .dg-box { fill: var(--dg-panel); stroke: var(--dg-border); }
    .dg-green { fill: var(--dg-green); stroke: var(--dg-green-border); }
    .dg-blue { fill: var(--dg-blue); stroke: var(--dg-blue-border); }
    .dg-orange { fill: var(--dg-orange); stroke: var(--dg-orange-border); }
    .dg-purple { fill: var(--dg-purple); stroke: var(--dg-purple-border); }
    .dg-yellow { fill: var(--dg-yellow); stroke: var(--dg-yellow-border); }
    .dg-arrow { stroke: var(--dg-muted); stroke-width: 2; fill: none; }
    .dg-dash { stroke-dasharray: 6 5; }
    .dg-marker { fill: var(--dg-muted); }
  </style>
  <rect x="20" y="20" width="1240" height="835" rx="16" class="dg-surface"/>
  <text x="640" y="58" text-anchor="middle" class="dg-title">HotSpot JDK 8+ JVM 进程内存</text>

  <rect x="45" y="88" width="260" height="730" rx="12" class="dg-green"/>
  <text x="175" y="120" text-anchor="middle" class="dg-group-title">Java 堆 Heap</text>
  <rect x="65" y="145" width="220" height="48" rx="9" class="dg-box"/>
  <text x="82" y="174" class="dg-box-title">参数：-Xms / -Xmx</text>
  <rect x="65" y="208" width="220" height="68" rx="9" class="dg-box"/>
  <text x="82" y="235" class="dg-box-title">对象数据</text>
  <text x="82" y="258" class="dg-body">对象实例 / 数组对象 / String 对象</text>
  <rect x="65" y="292" width="220" height="88" rx="9" class="dg-box"/>
  <text x="82" y="320" class="dg-box-title">Class 对象与 static</text>
  <text x="82" y="343" class="dg-body">java.lang.Class 对象在堆中</text>
  <text x="82" y="364" class="dg-body">static 字段值通常关联在 Class 对象上</text>
  <rect x="65" y="396" width="220" height="122" rx="9" class="dg-box"/>
  <text x="82" y="424" class="dg-box-title">GC 分代 / 分区结构</text>
  <text x="82" y="447" class="dg-body">Young / Eden / Survivor</text>
  <text x="82" y="468" class="dg-body">Old</text>
  <text x="82" y="489" class="dg-body">Region / Humongous Region</text>
  <rect x="65" y="535" width="220" height="78" rx="9" class="dg-box"/>
  <text x="82" y="562" class="dg-box-title">实现差异</text>
  <text x="82" y="585" class="dg-body">传统分代 GC 常见 Young + Old</text>
  <text x="82" y="606" class="dg-body">G1 / ZGC 等更偏向分区模型</text>

  <rect x="325" y="88" width="240" height="730" rx="12" class="dg-blue"/>
  <text x="445" y="120" text-anchor="middle" class="dg-group-title">每个 Java 线程私有区域</text>
  <rect x="345" y="145" width="200" height="58" rx="9" class="dg-box"/>
  <text x="362" y="174" class="dg-box-title">程序计数器 PC Register</text>
  <rect x="345" y="220" width="200" height="122" rx="9" class="dg-box"/>
  <text x="362" y="248" class="dg-box-title">Java 虚拟机栈</text>
  <text x="362" y="271" class="dg-body">栈帧 Stack Frame</text>
  <text x="362" y="292" class="dg-body">局部变量表 / 操作数栈</text>
  <text x="362" y="313" class="dg-body">动态链接 / 方法返回信息</text>
  <rect x="345" y="360" width="200" height="58" rx="9" class="dg-box"/>
  <text x="362" y="389" class="dg-box-title">本地方法栈</text>
  <text x="362" y="410" class="dg-body">Native Method Stack</text>
  <rect x="345" y="435" width="200" height="78" rx="9" class="dg-box"/>
  <text x="362" y="464" class="dg-box-title">实际内存来源</text>
  <text x="362" y="487" class="dg-body">线程栈实际占用 native memory</text>
  <text x="362" y="508" class="dg-body">受 -Xss 影响</text>

  <rect x="585" y="88" width="430" height="730" rx="12" class="dg-orange"/>
  <text x="800" y="120" text-anchor="middle" class="dg-group-title">本地内存 Native Memory</text>
  <rect x="605" y="145" width="190" height="134" rx="9" class="dg-box"/>
  <text x="622" y="172" class="dg-box-title">Metaspace（Java 8+）</text>
  <text x="622" y="194" class="dg-body">MetaspaceSize / MaxMetaspaceSize</text>
  <text x="622" y="215" class="dg-body">类元信息 / 字段 / 方法</text>
  <text x="622" y="236" class="dg-body">字节码相关结构 / 常量池元数据</text>
  <text x="622" y="257" class="dg-body">注解 / 方法表 / 接口表 / 类加载器</text>
  <rect x="810" y="145" width="185" height="58" rx="9" class="dg-box"/>
  <text x="827" y="172" class="dg-box-title">PermGen 永久代</text>
  <text x="827" y="194" class="dg-body">Java 7- / PermSize / MaxPermSize</text>
  <rect x="810" y="220" width="185" height="58" rx="9" class="dg-box"/>
  <text x="827" y="247" class="dg-box-title">Compressed Class Space</text>
  <text x="827" y="269" class="dg-body">压缩类指针相关类元数据</text>
  <rect x="605" y="296" width="190" height="78" rx="9" class="dg-box"/>
  <text x="622" y="323" class="dg-box-title">Code Cache</text>
  <text x="622" y="345" class="dg-body">ReservedCodeCacheSize</text>
  <text x="622" y="366" class="dg-body">JIT 机器码 / JVM stub / 入口跳转</text>
  <rect x="810" y="296" width="185" height="78" rx="9" class="dg-box"/>
  <text x="827" y="323" class="dg-box-title">Direct Memory</text>
  <text x="827" y="345" class="dg-body">MaxDirectMemorySize</text>
  <text x="827" y="366" class="dg-body">DirectByteBuffer 背后堆外内存</text>
  <rect x="605" y="392" width="190" height="98" rx="9" class="dg-box"/>
  <text x="622" y="419" class="dg-box-title">GC 内部数据结构</text>
  <text x="622" y="441" class="dg-body">Card Table / Remembered Set</text>
  <text x="622" y="462" class="dg-body">Mark Bitmap / GC worker 数据</text>
  <text x="622" y="483" class="dg-body">各类 GC 辅助结构</text>
  <rect x="810" y="392" width="185" height="98" rx="9" class="dg-box"/>
  <text x="827" y="419" class="dg-box-title">JVM 内部 C/C++ 结构</text>
  <text x="827" y="441" class="dg-body">Symbol / String Table</text>
  <text x="827" y="462" class="dg-body">System Dictionary</text>
  <text x="827" y="483" class="dg-body">ClassLoaderData / 管理对象</text>
  <rect x="605" y="508" width="190" height="78" rx="9" class="dg-box"/>
  <text x="622" y="535" class="dg-box-title">JNI / native 库</text>
  <text x="622" y="557" class="dg-body">第三方 native 库 malloc</text>
  <text x="622" y="578" class="dg-body">通常不受 DirectMemory 限制</text>
  <rect x="810" y="508" width="185" height="78" rx="9" class="dg-box"/>
  <text x="827" y="535" class="dg-box-title">NIO / mmap</text>
  <text x="827" y="557" class="dg-body">映射文件 / 共享库</text>
  <text x="827" y="578" class="dg-body">RSS 取决于访问热度</text>
  <rect x="605" y="604" width="190" height="58" rx="9" class="dg-box"/>
  <text x="622" y="633" class="dg-box-title">JIT 编译器工作内存</text>
  <rect x="810" y="604" width="185" height="58" rx="9" class="dg-box"/>
  <text x="827" y="633" class="dg-box-title">JVM 进程 / 动态库 / 运行时</text>

  <rect x="1035" y="88" width="200" height="730" rx="12" class="dg-purple"/>
  <text x="1135" y="120" text-anchor="middle" class="dg-group-title">OS / 容器侧相关</text>
  <rect x="1055" y="145" width="160" height="92" rx="9" class="dg-box"/>
  <text x="1072" y="172" class="dg-box-title">进程可用内存上限</text>
  <text x="1072" y="194" class="dg-body">物理机内存</text>
  <text x="1072" y="215" class="dg-body">ulimit / cgroup limit</text>
  <rect x="1055" y="255" width="160" height="112" rx="9" class="dg-box"/>
  <text x="1072" y="282" class="dg-box-title">OS Page Cache</text>
  <text x="1072" y="304" class="dg-body">不等同于 JVM 自己内存</text>
  <text x="1072" y="325" class="dg-body">但会影响机器 / 容器</text>
  <text x="1072" y="346" class="dg-body">整体内存压力</text>
</svg>
